<?xml version="1.0" encoding="utf-8"?>
<!-- Generator: Adobe Illustrator 15.0.0, SVG Export Plug-In . SVG Version: 6.00 Build 0)  -->
<!DOCTYPE svg PUBLIC "-//W3C//DTD SVG 1.1//EN" "http://www.w3.org/Graphics/SVG/1.1/DTD/svg11.dtd">
<svg version="1.1" id="Layer_1" xmlns="http://www.w3.org/2000/svg" xmlns:xlink="http://www.w3.org/1999/xlink" x="0px" y="0px"
	 width="463px" height="138px" viewBox="0 0 463 138" enable-background="new 0 0 463 138" xml:space="preserve">
<path fill="#065894" d="M456,120c0,5.522-4.478,10-10,10H18c-5.523,0-10-4.478-10-10V18c0-5.523,4.477-10,10-10h428
	c5.522,0,10,4.477,10,10V120z"/>
<g>
	<path fill="#065894" d="M40.194-318.184c1.144-1.718,2.602-3.096,4.372-4.139c1.769-1.039,3.76-1.781,5.972-2.225
		c2.211-0.441,4.437-0.663,6.675-0.663c2.03,0,4.085,0.144,6.167,0.429c2.081,0.287,3.981,0.848,5.699,1.68
		c1.717,0.832,3.123,1.99,4.215,3.473c1.093,1.484,1.64,3.449,1.64,5.895v21c0,1.822,0.104,3.565,0.312,5.23
		c0.208,1.666,0.572,2.915,1.093,3.747H65.098c-0.208-0.625-0.378-1.262-0.507-1.913c-0.131-0.649-0.222-1.313-0.273-1.99
		c-1.77,1.822-3.852,3.097-6.245,3.825c-2.395,0.729-4.84,1.093-7.338,1.093c-1.926,0-3.722-0.234-5.387-0.702
		c-1.666-0.469-3.123-1.197-4.372-2.187c-1.249-0.987-2.225-2.236-2.927-3.747c-0.703-1.509-1.054-3.304-1.054-5.387
		c0-2.289,0.403-4.176,1.21-5.659c0.807-1.483,1.847-2.667,3.123-3.552c1.275-0.885,2.732-1.548,4.372-1.991
		c1.639-0.441,3.291-0.793,4.957-1.054c1.665-0.26,3.304-0.469,4.918-0.625c1.612-0.155,3.044-0.39,4.293-0.702
		s2.237-0.767,2.966-1.366c0.729-0.598,1.066-1.47,1.015-2.615c0-1.196-0.195-2.147-0.585-2.85c-0.391-0.702-0.911-1.249-1.562-1.64
		c-0.651-0.39-1.405-0.65-2.264-0.78c-0.859-0.13-1.784-0.195-2.771-0.195c-2.186,0-3.903,0.469-5.152,1.405
		c-1.249,0.938-1.979,2.498-2.186,4.684H38.243C38.399-314.307,39.049-316.467,40.194-318.184z M62.092-302.532
		c-0.702,0.234-1.458,0.43-2.264,0.586c-0.808,0.156-1.653,0.287-2.537,0.391c-0.886,0.104-1.77,0.234-2.654,0.39
		c-0.833,0.156-1.653,0.365-2.459,0.625c-0.808,0.261-1.51,0.612-2.108,1.054c-0.599,0.443-1.081,1.003-1.444,1.679
		c-0.365,0.677-0.546,1.535-0.546,2.576c0,0.989,0.182,1.822,0.546,2.498c0.364,0.677,0.859,1.21,1.483,1.601
		c0.625,0.39,1.353,0.663,2.186,0.819c0.832,0.156,1.69,0.234,2.576,0.234c2.186,0,3.876-0.363,5.074-1.093
		c1.196-0.729,2.081-1.601,2.654-2.615c0.572-1.015,0.923-2.042,1.054-3.084c0.129-1.04,0.195-1.873,0.195-2.498v-4.138
		C63.38-303.091,62.794-302.766,62.092-302.532z"/>
	<path fill="#065894" d="M94.605-339.496v21h0.234c1.405-2.342,3.201-4.047,5.387-5.113c2.186-1.066,4.319-1.601,6.401-1.601
		c2.966,0,5.399,0.403,7.299,1.21c1.899,0.808,3.396,1.926,4.489,3.357c1.093,1.432,1.86,3.174,2.303,5.23
		c0.441,2.057,0.664,4.332,0.664,6.83v24.825h-11.085v-22.795c0-3.331-0.521-5.816-1.561-7.456
		c-1.042-1.639-2.889-2.459-5.543-2.459c-3.019,0-5.205,0.898-6.558,2.693c-1.354,1.796-2.03,4.75-2.03,8.86v21.156H83.521v-55.739
		H94.605z"/>
	<path fill="#065894" d="M131.296-318.184c1.144-1.718,2.602-3.096,4.372-4.139c1.769-1.039,3.76-1.781,5.972-2.225
		c2.211-0.441,4.437-0.663,6.675-0.663c2.03,0,4.085,0.144,6.167,0.429c2.081,0.287,3.981,0.848,5.699,1.68
		c1.717,0.832,3.123,1.99,4.215,3.473c1.093,1.484,1.64,3.449,1.64,5.895v21c0,1.822,0.104,3.565,0.312,5.23
		c0.208,1.666,0.572,2.915,1.093,3.747h-11.241c-0.208-0.625-0.378-1.262-0.507-1.913c-0.131-0.649-0.222-1.313-0.273-1.99
		c-1.77,1.822-3.852,3.097-6.245,3.825c-2.395,0.729-4.84,1.093-7.338,1.093c-1.926,0-3.722-0.234-5.387-0.702
		c-1.666-0.469-3.123-1.197-4.372-2.187c-1.249-0.987-2.225-2.236-2.927-3.747c-0.703-1.509-1.054-3.304-1.054-5.387
		c0-2.289,0.403-4.176,1.21-5.659c0.807-1.483,1.847-2.667,3.123-3.552c1.275-0.885,2.732-1.548,4.372-1.991
		c1.639-0.441,3.291-0.793,4.957-1.054c1.665-0.26,3.304-0.469,4.918-0.625c1.612-0.155,3.044-0.39,4.293-0.702
		s2.237-0.767,2.966-1.366c0.729-0.598,1.066-1.47,1.015-2.615c0-1.196-0.195-2.147-0.585-2.85c-0.391-0.702-0.911-1.249-1.562-1.64
		c-0.651-0.39-1.405-0.65-2.264-0.78c-0.859-0.13-1.784-0.195-2.771-0.195c-2.186,0-3.903,0.469-5.152,1.405
		c-1.249,0.938-1.979,2.498-2.186,4.684h-11.085C129.5-314.307,130.15-316.467,131.296-318.184z M153.193-302.532
		c-0.702,0.234-1.458,0.43-2.264,0.586c-0.808,0.156-1.653,0.287-2.537,0.391c-0.886,0.104-1.77,0.234-2.654,0.39
		c-0.833,0.156-1.653,0.365-2.459,0.625c-0.808,0.261-1.51,0.612-2.108,1.054c-0.599,0.443-1.081,1.003-1.444,1.679
		c-0.365,0.677-0.546,1.535-0.546,2.576c0,0.989,0.182,1.822,0.546,2.498c0.364,0.677,0.859,1.21,1.483,1.601
		c0.625,0.39,1.353,0.663,2.186,0.819c0.832,0.156,1.69,0.234,2.576,0.234c2.186,0,3.876-0.363,5.074-1.093
		c1.196-0.729,2.081-1.601,2.654-2.615c0.572-1.015,0.923-2.042,1.054-3.084c0.129-1.04,0.195-1.873,0.195-2.498v-4.138
		C154.481-303.091,153.896-302.766,153.193-302.532z"/>
	<path fill="#065894" d="M185.161-324.117v7.494h0.156c0.52-1.248,1.222-2.406,2.108-3.474c0.884-1.065,1.899-1.978,3.044-2.732
		c1.144-0.754,2.368-1.339,3.669-1.757c1.3-0.416,2.654-0.624,4.06-0.624c0.729,0,1.535,0.13,2.42,0.39v10.305
		c-0.521-0.104-1.145-0.194-1.874-0.272c-0.729-0.078-1.432-0.117-2.107-0.117c-2.03,0-3.748,0.339-5.152,1.015
		c-1.405,0.678-2.538,1.601-3.396,2.771c-0.859,1.171-1.471,2.537-1.834,4.099c-0.365,1.562-0.547,3.253-0.547,5.074v18.189h-11.085
		v-40.36H185.161z"/>
	<path fill="#065894" d="M203.819-312.68c0.988-2.628,2.393-4.866,4.216-6.715c1.821-1.846,4.007-3.278,6.558-4.293
		c2.549-1.016,5.412-1.522,8.587-1.522c3.174,0,6.05,0.507,8.626,1.522c2.576,1.015,4.774,2.447,6.597,4.293
		c1.821,1.849,3.227,4.087,4.215,6.715s1.484,5.556,1.484,8.782c0,3.228-0.496,6.142-1.484,8.743
		c-0.988,2.603-2.394,4.828-4.215,6.675c-1.822,1.848-4.021,3.267-6.597,4.254c-2.576,0.988-5.453,1.483-8.626,1.483
		c-3.175,0-6.038-0.495-8.587-1.483c-2.551-0.987-4.737-2.406-6.558-4.254c-1.823-1.847-3.228-4.072-4.216-6.675
		c-0.989-2.602-1.483-5.516-1.483-8.743C202.335-307.124,202.83-310.052,203.819-312.68z M213.89-299.175
		c0.312,1.535,0.845,2.915,1.6,4.138c0.754,1.224,1.756,2.199,3.006,2.927c1.249,0.729,2.81,1.094,4.684,1.094
		s3.447-0.364,4.723-1.094c1.275-0.728,2.29-1.703,3.044-2.927c0.754-1.223,1.288-2.603,1.601-4.138
		c0.312-1.534,0.468-3.109,0.468-4.723s-0.156-3.201-0.468-4.763c-0.312-1.561-0.847-2.939-1.601-4.137
		c-0.755-1.197-1.77-2.173-3.044-2.928c-1.276-0.754-2.85-1.133-4.723-1.133s-3.435,0.379-4.684,1.133
		c-1.25,0.755-2.252,1.73-3.006,2.928c-0.755,1.197-1.288,2.576-1.6,4.137c-0.312,1.562-0.469,3.149-0.469,4.763
		S213.577-300.709,213.89-299.175z"/>
	<path fill="#065894" d="M261.822-324.117v5.621h0.232c1.406-2.342,3.227-4.047,5.465-5.113s4.529-1.601,6.871-1.601
		c2.967,0,5.398,0.403,7.299,1.21c1.898,0.808,3.396,1.926,4.488,3.357c1.094,1.432,1.861,3.174,2.303,5.23s0.664,4.332,0.664,6.83
		v24.825h-11.086v-22.795c0-3.331-0.52-5.816-1.561-7.456c-1.041-1.639-2.889-2.459-5.543-2.459c-3.02,0-5.205,0.898-6.557,2.693
		c-1.355,1.796-2.031,4.75-2.031,8.86v21.156h-11.084v-40.36H261.822z"/>
	<path fill="#EE283D" d="M308.66-339.496v20.297h0.156c1.352-2.08,3.188-3.604,5.504-4.566c2.314-0.963,4.723-1.444,7.221-1.444
		c2.029,0,4.033,0.417,6.012,1.249c1.977,0.833,3.758,2.107,5.348,3.825c1.586,1.718,2.875,3.917,3.863,6.597
		c0.988,2.682,1.482,5.868,1.482,9.563s-0.494,6.883-1.482,9.562c-0.988,2.682-2.277,4.879-3.863,6.597
		c-1.59,1.718-3.371,2.993-5.348,3.825c-1.979,0.832-3.982,1.249-6.012,1.249c-2.967,0-5.621-0.468-7.963-1.405
		c-2.342-0.937-4.111-2.523-5.309-4.762h-0.156v5.152h-10.539v-55.739H308.66z M326.615-308.815
		c-0.365-1.562-0.938-2.94-1.717-4.138c-0.781-1.197-1.758-2.147-2.928-2.85c-1.172-0.703-2.59-1.055-4.256-1.055
		c-1.613,0-3.018,0.352-4.215,1.055c-1.197,0.702-2.186,1.652-2.967,2.85s-1.354,2.576-1.717,4.138
		c-0.365,1.561-0.547,3.2-0.547,4.918c0,1.666,0.182,3.278,0.547,4.84c0.363,1.562,0.936,2.94,1.717,4.138s1.77,2.146,2.967,2.849
		c1.197,0.703,2.602,1.055,4.215,1.055c1.666,0,3.084-0.352,4.256-1.055c1.17-0.702,2.146-1.651,2.928-2.849
		c0.779-1.197,1.352-2.576,1.717-4.138c0.363-1.562,0.547-3.174,0.547-4.84C327.162-305.615,326.979-307.255,326.615-308.815z"/>
	<path fill="#EE283D" d="M371.596-283.757v-5.621h-0.234c-1.404,2.343-3.227,4.034-5.465,5.074
		c-2.238,1.041-4.527,1.562-6.869,1.562c-2.967,0-5.4-0.39-7.299-1.171c-1.9-0.78-3.396-1.886-4.49-3.317
		c-1.092-1.431-1.861-3.174-2.303-5.23c-0.441-2.056-0.662-4.333-0.662-6.831v-24.825h11.084v22.796c0,3.331,0.52,5.815,1.562,7.455
		c1.039,1.64,2.889,2.459,5.543,2.459c3.018,0,5.203-0.897,6.557-2.693s2.029-4.749,2.029-8.86v-21.156h11.086v40.36H371.596z"/>
	<path fill="#EE283D" d="M400.895-293.788c0.492,0.858,1.131,1.562,1.912,2.107c0.779,0.547,1.678,0.95,2.693,1.21
		c1.014,0.261,2.068,0.391,3.162,0.391c0.779,0,1.6-0.091,2.459-0.273c0.857-0.182,1.639-0.469,2.342-0.858
		c0.701-0.391,1.287-0.91,1.756-1.562c0.469-0.65,0.703-1.47,0.703-2.459c0-1.665-1.107-2.914-3.318-3.747
		c-2.213-0.832-5.297-1.665-9.25-2.498c-1.615-0.364-3.189-0.793-4.725-1.288c-1.535-0.494-2.9-1.145-4.098-1.952
		c-1.197-0.806-2.16-1.821-2.889-3.044s-1.092-2.719-1.092-4.489c0-2.603,0.506-4.735,1.521-6.401
		c1.016-1.665,2.354-2.979,4.02-3.942c1.666-0.962,3.539-1.64,5.621-2.03c2.082-0.39,4.217-0.585,6.402-0.585
		s4.305,0.208,6.361,0.624c2.057,0.418,3.891,1.12,5.504,2.108c1.613,0.989,2.953,2.303,4.021,3.942
		c1.064,1.639,1.703,3.708,1.912,6.206h-10.539c-0.156-2.134-0.963-3.577-2.42-4.333c-1.457-0.754-3.176-1.132-5.152-1.132
		c-0.625,0-1.303,0.039-2.029,0.117c-0.73,0.078-1.395,0.247-1.992,0.508s-1.105,0.638-1.521,1.132
		c-0.418,0.495-0.625,1.158-0.625,1.99c0,0.99,0.363,1.796,1.094,2.42c0.729,0.625,1.678,1.133,2.85,1.523
		c1.17,0.39,2.51,0.741,4.02,1.054c1.51,0.312,3.045,0.65,4.605,1.015c1.613,0.364,3.188,0.808,4.725,1.327
		c1.533,0.521,2.9,1.21,4.098,2.068s2.158,1.926,2.889,3.201c0.729,1.275,1.092,2.849,1.092,4.723c0,2.654-0.533,4.879-1.6,6.675
		c-1.066,1.795-2.459,3.239-4.176,4.333c-1.719,1.093-3.684,1.861-5.895,2.303c-2.213,0.441-4.463,0.663-6.752,0.663
		c-2.344,0-4.633-0.234-6.871-0.702c-2.238-0.469-4.229-1.249-5.971-2.342c-1.746-1.094-3.176-2.537-4.295-4.333
		s-1.73-4.046-1.834-6.753h10.539C400.152-295.674,400.398-294.647,400.895-293.788z"/>
</g>
<g>
	<path fill="#FFFFFF" d="M39.694,61.936c1.145-1.718,2.603-3.096,4.372-4.139c1.769-1.039,3.76-1.781,5.972-2.225
		c2.212-0.441,4.437-0.663,6.675-0.663c2.03,0,4.085,0.144,6.167,0.429c2.081,0.287,3.981,0.848,5.699,1.68s3.123,1.99,4.216,3.473
		c1.093,1.484,1.64,3.449,1.64,5.895v21c0,1.822,0.104,3.565,0.312,5.23c0.208,1.666,0.572,2.915,1.093,3.747H64.598
		c-0.208-0.625-0.378-1.262-0.507-1.913c-0.131-0.649-0.223-1.313-0.273-1.99c-1.771,1.822-3.853,3.097-6.245,3.825
		c-2.395,0.729-4.841,1.093-7.339,1.093c-1.926,0-3.722-0.234-5.387-0.702c-1.666-0.469-3.122-1.197-4.371-2.187
		c-1.249-0.987-2.226-2.236-2.928-3.747c-0.702-1.509-1.054-3.304-1.054-5.387c0-2.289,0.402-4.176,1.21-5.659
		c0.807-1.483,1.847-2.667,3.122-3.552s2.732-1.548,4.372-1.991c1.64-0.441,3.291-0.793,4.957-1.054
		c1.665-0.26,3.305-0.469,4.919-0.625c1.612-0.155,3.044-0.39,4.293-0.702s2.237-0.767,2.967-1.366
		c0.729-0.598,1.066-1.47,1.015-2.615c0-1.196-0.195-2.147-0.585-2.85c-0.391-0.702-0.911-1.249-1.562-1.64
		c-0.651-0.39-1.405-0.65-2.264-0.78c-0.859-0.13-1.784-0.195-2.771-0.195c-2.187,0-3.903,0.469-5.152,1.405
		c-1.249,0.938-1.979,2.498-2.187,4.684H37.743C37.899,65.812,38.549,63.652,39.694,61.936z M61.592,77.587
		c-0.702,0.234-1.457,0.43-2.264,0.586c-0.808,0.156-1.652,0.287-2.537,0.391c-0.886,0.104-1.77,0.234-2.654,0.39
		c-0.833,0.156-1.652,0.365-2.459,0.625c-0.808,0.261-1.51,0.612-2.107,1.054c-0.6,0.443-1.081,1.003-1.444,1.679
		c-0.365,0.677-0.547,1.535-0.547,2.576c0,0.989,0.182,1.822,0.547,2.498c0.363,0.677,0.858,1.21,1.483,1.601
		c0.624,0.39,1.353,0.663,2.186,0.819c0.832,0.156,1.69,0.234,2.576,0.234c2.186,0,3.877-0.363,5.074-1.093
		c1.196-0.729,2.081-1.601,2.654-2.615c0.572-1.015,0.924-2.042,1.054-3.084c0.13-1.04,0.195-1.873,0.195-2.498v-4.138
		C62.88,77.028,62.295,77.354,61.592,77.587z"/>
	<path fill="#FFFFFF" d="M94.105,40.623v21h0.234c1.405-2.342,3.201-4.047,5.387-5.113s4.319-1.601,6.401-1.601
		c2.967,0,5.399,0.403,7.3,1.21c1.898,0.808,3.396,1.926,4.488,3.357s1.86,3.174,2.303,5.23c0.441,2.057,0.664,4.332,0.664,6.83
		v24.825h-11.086V73.567c0-3.331-0.521-5.816-1.561-7.456c-1.042-1.639-2.889-2.459-5.543-2.459c-3.02,0-5.205,0.898-6.558,2.693
		c-1.354,1.796-2.03,4.75-2.03,8.86v21.156H83.021V40.623H94.105z"/>
	<path fill="#FFFFFF" d="M130.796,61.936c1.145-1.718,2.603-3.096,4.372-4.139c1.769-1.039,3.76-1.781,5.972-2.225
		c2.212-0.441,4.437-0.663,6.675-0.663c2.03,0,4.085,0.144,6.167,0.429c2.081,0.287,3.981,0.848,5.699,1.68s3.123,1.99,4.216,3.473
		c1.093,1.484,1.64,3.449,1.64,5.895v21c0,1.822,0.104,3.565,0.312,5.23c0.208,1.666,0.572,2.915,1.093,3.747h-11.241
		c-0.208-0.625-0.378-1.262-0.507-1.913c-0.131-0.649-0.223-1.313-0.273-1.99c-1.771,1.822-3.853,3.097-6.245,3.825
		c-2.395,0.729-4.841,1.093-7.339,1.093c-1.926,0-3.722-0.234-5.387-0.702c-1.666-0.469-3.122-1.197-4.371-2.187
		c-1.249-0.987-2.226-2.236-2.928-3.747c-0.702-1.509-1.054-3.304-1.054-5.387c0-2.289,0.402-4.176,1.21-5.659
		c0.807-1.483,1.847-2.667,3.122-3.552s2.732-1.548,4.372-1.991c1.64-0.441,3.291-0.793,4.957-1.054
		c1.665-0.26,3.305-0.469,4.919-0.625c1.612-0.155,3.044-0.39,4.293-0.702s2.237-0.767,2.967-1.366
		c0.729-0.598,1.066-1.47,1.015-2.615c0-1.196-0.195-2.147-0.585-2.85c-0.391-0.702-0.911-1.249-1.562-1.64
		c-0.651-0.39-1.405-0.65-2.264-0.78c-0.859-0.13-1.784-0.195-2.771-0.195c-2.187,0-3.903,0.469-5.152,1.405
		c-1.249,0.938-1.979,2.498-2.187,4.684h-11.085C129.001,65.812,129.65,63.652,130.796,61.936z M152.693,77.587
		c-0.702,0.234-1.457,0.43-2.264,0.586c-0.808,0.156-1.652,0.287-2.537,0.391c-0.886,0.104-1.77,0.234-2.654,0.39
		c-0.833,0.156-1.652,0.365-2.459,0.625c-0.808,0.261-1.51,0.612-2.107,1.054c-0.6,0.443-1.081,1.003-1.444,1.679
		c-0.365,0.677-0.547,1.535-0.547,2.576c0,0.989,0.182,1.822,0.547,2.498c0.363,0.677,0.858,1.21,1.483,1.601
		c0.624,0.39,1.353,0.663,2.186,0.819c0.832,0.156,1.69,0.234,2.576,0.234c2.186,0,3.877-0.363,5.074-1.093
		c1.196-0.729,2.081-1.601,2.654-2.615c0.572-1.015,0.924-2.042,1.054-3.084c0.13-1.04,0.195-1.873,0.195-2.498v-4.138
		C153.981,77.028,153.396,77.354,152.693,77.587z"/>
	<path fill="#FFFFFF" d="M184.661,56.002v7.494h0.156c0.52-1.248,1.222-2.406,2.107-3.474c0.885-1.065,1.899-1.978,3.045-2.732
		c1.144-0.754,2.367-1.339,3.669-1.757c1.3-0.416,2.654-0.624,4.06-0.624c0.729,0,1.534,0.13,2.42,0.39v10.305
		c-0.521-0.104-1.146-0.194-1.874-0.272c-0.729-0.078-1.432-0.117-2.107-0.117c-2.029,0-3.747,0.339-5.152,1.015
		c-1.405,0.678-2.537,1.601-3.396,2.771c-0.859,1.171-1.472,2.537-1.835,4.099c-0.364,1.562-0.547,3.253-0.547,5.074v18.189h-11.085
		v-40.36H184.661z"/>
	<path fill="#FFFFFF" d="M203.319,67.439c0.988-2.628,2.393-4.866,4.216-6.715c1.82-1.846,4.007-3.278,6.558-4.293
		c2.549-1.016,5.412-1.522,8.587-1.522c3.174,0,6.05,0.507,8.626,1.522c2.576,1.015,4.774,2.447,6.597,4.293
		c1.821,1.849,3.227,4.087,4.215,6.715s1.484,5.556,1.484,8.782c0,3.228-0.496,6.142-1.484,8.743
		c-0.988,2.603-2.394,4.828-4.215,6.675c-1.822,1.848-4.021,3.267-6.597,4.254c-2.576,0.988-5.452,1.483-8.626,1.483
		c-3.175,0-6.038-0.495-8.587-1.483c-2.551-0.987-4.737-2.406-6.558-4.254c-1.823-1.847-3.228-4.072-4.216-6.675
		c-0.989-2.602-1.483-5.516-1.483-8.743C201.836,72.995,202.33,70.067,203.319,67.439z M213.39,80.944
		c0.312,1.535,0.846,2.915,1.601,4.138c0.754,1.224,1.756,2.199,3.006,2.927c1.249,0.729,2.81,1.094,4.684,1.094
		c1.873,0,3.447-0.364,4.723-1.094c1.275-0.728,2.29-1.703,3.045-2.927c0.754-1.223,1.288-2.603,1.601-4.138
		c0.312-1.534,0.468-3.109,0.468-4.723s-0.156-3.201-0.468-4.763c-0.312-1.561-0.847-2.939-1.601-4.137
		c-0.755-1.197-1.77-2.173-3.045-2.928c-1.275-0.754-2.85-1.133-4.723-1.133c-1.874,0-3.435,0.379-4.684,1.133
		c-1.25,0.755-2.252,1.73-3.006,2.928c-0.755,1.197-1.288,2.576-1.601,4.137c-0.312,1.562-0.469,3.149-0.469,4.763
		S213.077,79.41,213.39,80.944z"/>
	<path fill="#FFFFFF" d="M261.322,56.002v5.621h0.232c1.406-2.342,3.227-4.047,5.465-5.113s4.529-1.601,6.871-1.601
		c2.967,0,5.398,0.403,7.299,1.21c1.898,0.808,3.396,1.926,4.488,3.357c1.094,1.432,1.861,3.174,2.303,5.23s0.664,4.332,0.664,6.83
		v24.825h-11.086V73.567c0-3.331-0.52-5.816-1.561-7.456c-1.041-1.639-2.889-2.459-5.543-2.459c-3.02,0-5.205,0.898-6.557,2.693
		c-1.355,1.796-2.031,4.75-2.031,8.86v21.156h-11.084v-40.36H261.322z"/>
	<path fill="#FFFFFF" d="M308.16,40.623V60.92h0.156c1.352-2.08,3.188-3.604,5.504-4.566c2.314-0.963,4.723-1.444,7.221-1.444
		c2.029,0,4.033,0.417,6.012,1.249c1.977,0.833,3.758,2.107,5.348,3.825c1.586,1.718,2.875,3.917,3.863,6.597
		c0.988,2.682,1.482,5.868,1.482,9.563s-0.494,6.883-1.482,9.562c-0.988,2.682-2.277,4.879-3.863,6.597
		c-1.59,1.718-3.371,2.993-5.348,3.825c-1.979,0.832-3.982,1.249-6.012,1.249c-2.967,0-5.621-0.468-7.963-1.405
		c-2.342-0.937-4.111-2.523-5.309-4.762h-0.156v5.152h-10.539V40.623H308.16z M326.115,71.304c-0.365-1.562-0.938-2.94-1.717-4.138
		c-0.781-1.197-1.758-2.147-2.928-2.85c-1.172-0.703-2.59-1.055-4.256-1.055c-1.613,0-3.018,0.352-4.215,1.055
		c-1.197,0.702-2.186,1.652-2.967,2.85s-1.354,2.576-1.717,4.138c-0.365,1.561-0.547,3.2-0.547,4.918
		c0,1.666,0.182,3.278,0.547,4.84c0.363,1.562,0.936,2.94,1.717,4.138s1.77,2.146,2.967,2.849c1.197,0.703,2.602,1.055,4.215,1.055
		c1.666,0,3.084-0.352,4.256-1.055c1.17-0.702,2.146-1.651,2.928-2.849c0.779-1.197,1.352-2.576,1.717-4.138
		c0.363-1.562,0.547-3.174,0.547-4.84C326.662,74.504,326.479,72.864,326.115,71.304z"/>
	<path fill="#FFFFFF" d="M371.096,96.362v-5.621h-0.234c-1.404,2.343-3.227,4.034-5.465,5.074c-2.238,1.041-4.527,1.562-6.869,1.562
		c-2.967,0-5.4-0.39-7.299-1.171c-1.9-0.78-3.396-1.886-4.49-3.317c-1.092-1.431-1.861-3.174-2.303-5.23
		c-0.441-2.056-0.662-4.333-0.662-6.831V56.002h11.084v22.796c0,3.331,0.52,5.815,1.562,7.455c1.039,1.64,2.889,2.459,5.543,2.459
		c3.018,0,5.203-0.897,6.557-2.693s2.029-4.749,2.029-8.86V56.002h11.086v40.36H371.096z"/>
	<path fill="#FFFFFF" d="M400.395,86.331c0.492,0.858,1.131,1.562,1.912,2.107c0.779,0.547,1.678,0.95,2.693,1.21
		c1.014,0.261,2.068,0.391,3.162,0.391c0.779,0,1.6-0.091,2.459-0.273c0.857-0.182,1.639-0.469,2.342-0.858
		c0.701-0.391,1.287-0.91,1.756-1.562c0.469-0.65,0.703-1.47,0.703-2.459c0-1.665-1.107-2.914-3.318-3.747
		c-2.213-0.832-5.297-1.665-9.25-2.498c-1.615-0.364-3.189-0.793-4.725-1.288c-1.535-0.494-2.9-1.145-4.098-1.952
		c-1.197-0.806-2.16-1.821-2.889-3.044s-1.092-2.719-1.092-4.489c0-2.603,0.506-4.735,1.521-6.401
		c1.016-1.665,2.354-2.979,4.02-3.942c1.666-0.962,3.539-1.64,5.621-2.03c2.082-0.39,4.217-0.585,6.402-0.585
		s4.305,0.208,6.361,0.624c2.057,0.418,3.891,1.12,5.504,2.108c1.613,0.989,2.953,2.303,4.021,3.942
		c1.064,1.639,1.703,3.708,1.912,6.206h-10.539c-0.156-2.134-0.963-3.577-2.42-4.333c-1.457-0.754-3.176-1.132-5.152-1.132
		c-0.625,0-1.303,0.039-2.029,0.117c-0.73,0.078-1.395,0.247-1.992,0.508s-1.105,0.638-1.521,1.132
		c-0.418,0.495-0.625,1.158-0.625,1.99c0,0.99,0.363,1.796,1.094,2.42c0.729,0.625,1.678,1.133,2.85,1.523
		c1.17,0.39,2.51,0.741,4.02,1.054c1.51,0.312,3.045,0.65,4.605,1.015c1.613,0.364,3.188,0.808,4.725,1.327
		c1.533,0.521,2.9,1.21,4.098,2.068s2.158,1.926,2.889,3.201c0.729,1.275,1.092,2.849,1.092,4.723c0,2.654-0.533,4.879-1.6,6.675
		c-1.066,1.795-2.459,3.239-4.176,4.333c-1.719,1.093-3.684,1.861-5.895,2.303c-2.213,0.441-4.463,0.663-6.752,0.663
		c-2.344,0-4.633-0.234-6.871-0.702c-2.238-0.469-4.229-1.249-5.971-2.342c-1.746-1.094-3.176-2.537-4.295-4.333
		s-1.73-4.046-1.834-6.753h10.539C399.652,84.445,399.898,85.472,400.395,86.331z"/>
</g>
</svg>
